<?xml version="1.0" encoding="utf-8"?>
<!-- Generator: Adobe Illustrator 27.9.1, SVG Export Plug-In . SVG Version: 6.00 Build 0)  -->
<svg version="1.1" id="Layer_1" xmlns="http://www.w3.org/2000/svg" xmlns:xlink="http://www.w3.org/1999/xlink" x="0px" y="0px"
	 viewBox="0 0 64 62" style="enable-background:new 0 0 64 62;" xml:space="preserve">
<g>
	<g>
		<path d="M56,11.5H8c-0.3,0-0.5,0.2-0.5,0.5v40c0,0.3,0.2,0.5,0.5,0.5h48c0.3,0,0.5-0.2,0.5-0.5V12C56.5,11.7,56.3,11.5,56,11.5z
			 M8.5,18.5h47v27h-47V18.5z M55.5,12.5v5h-47v-5H55.5z M8.5,51.5v-5h47v5H8.5z"/>
		<path d="M14,23.5c-0.3,0-0.5,0.2-0.5,0.5v2c0,0.3,0.2,0.5,0.5,0.5s0.5-0.2,0.5-0.5v-2C14.5,23.7,14.3,23.5,14,23.5z"/>
		<path d="M20,23.5c-0.3,0-0.5,0.2-0.5,0.5v2c0,0.3,0.2,0.5,0.5,0.5s0.5-0.2,0.5-0.5v-2C20.5,23.7,20.3,23.5,20,23.5z"/>
		<path d="M26,23.5c-0.3,0-0.5,0.2-0.5,0.5v2c0,0.3,0.2,0.5,0.5,0.5s0.5-0.2,0.5-0.5v-2C26.5,23.7,26.3,23.5,26,23.5z"/>
		<path d="M38,23.5c-0.3,0-0.5,0.2-0.5,0.5v2c0,0.3,0.2,0.5,0.5,0.5s0.5-0.2,0.5-0.5v-2C38.5,23.7,38.3,23.5,38,23.5z"/>
		<path d="M44,23.5c-0.3,0-0.5,0.2-0.5,0.5v2c0,0.3,0.2,0.5,0.5,0.5s0.5-0.2,0.5-0.5v-2C44.5,23.7,44.3,23.5,44,23.5z"/>
		<path d="M32,23.5c-0.3,0-0.5,0.2-0.5,0.5v2c0,0.3,0.2,0.5,0.5,0.5c0.3,0,0.5-0.2,0.5-0.5v-2C32.5,23.7,32.3,23.5,32,23.5z"/>
		<path d="M14,31.5c-0.3,0-0.5,0.2-0.5,0.5v2c0,0.3,0.2,0.5,0.5,0.5s0.5-0.2,0.5-0.5v-2C14.5,31.7,14.3,31.5,14,31.5z"/>
		<path d="M26,31.5c-0.3,0-0.5,0.2-0.5,0.5v2c0,0.3,0.2,0.5,0.5,0.5s0.5-0.2,0.5-0.5v-2C26.5,31.7,26.3,31.5,26,31.5z"/>
		<path d="M44,31.5c-0.3,0-0.5,0.2-0.5,0.5v2c0,0.3,0.2,0.5,0.5,0.5s0.5-0.2,0.5-0.5v-2C44.5,31.7,44.3,31.5,44,31.5z"/>
		<path d="M32,31.5c-0.3,0-0.5,0.2-0.5,0.5v2c0,0.3,0.2,0.5,0.5,0.5c0.3,0,0.5-0.2,0.5-0.5v-2C32.5,31.7,32.3,31.5,32,31.5z"/>
		<path d="M50,31.5c-0.3,0-0.5,0.2-0.5,0.5v2c0,0.3,0.2,0.5,0.5,0.5s0.5-0.2,0.5-0.5v-2C50.5,31.7,50.3,31.5,50,31.5z"/>
		<path d="M14,38.5c-0.3,0-0.5,0.2-0.5,0.5v2c0,0.3,0.2,0.5,0.5,0.5s0.5-0.2,0.5-0.5v-2C14.5,38.7,14.3,38.5,14,38.5z"/>
		<path d="M20,38.5c-0.3,0-0.5,0.2-0.5,0.5v2c0,0.3,0.2,0.5,0.5,0.5s0.5-0.2,0.5-0.5v-2C20.5,38.7,20.3,38.5,20,38.5z"/>
		<path d="M26,38.5c-0.3,0-0.5,0.2-0.5,0.5v2c0,0.3,0.2,0.5,0.5,0.5s0.5-0.2,0.5-0.5v-2C26.5,38.7,26.3,38.5,26,38.5z"/>
		<path d="M50,38.5c-0.3,0-0.5,0.2-0.5,0.5v2c0,0.3,0.2,0.5,0.5,0.5s0.5-0.2,0.5-0.5v-2C50.5,38.7,50.3,38.5,50,38.5z"/>
	</g>
</g>
</svg>
