<?xml version="1.0" encoding="utf-8"?>
<!-- Generator: Adobe Illustrator 27.9.1, SVG Export Plug-In . SVG Version: 6.00 Build 0)  -->
<svg version="1.1" id="Layer_1" xmlns="http://www.w3.org/2000/svg" xmlns:xlink="http://www.w3.org/1999/xlink" x="0px" y="0px"
	 viewBox="0 0 68 67.7" style="enable-background:new 0 0 68 67.7;" xml:space="preserve">
<g>
	<g>
		<g>
			<g>
				<path d="M36.3,62.5c0,0-0.1,0-0.1,0c-0.1,0-0.2-0.1-0.2-0.2c-0.4-0.7-1.1-1.1-1.9-1.1c-0.2,0-0.4-0.2-0.4-0.4l0-9.5
					c0-0.2,0.2-0.4,0.4-0.4c1.2,0,2.1-1,2.1-2.2c0-0.3,0-0.5-0.1-0.7c-0.3-0.9-1.1-1.4-2-1.5c-0.2,0-0.4-0.2-0.4-0.4l0-8.5
					c0-0.2,0.2-0.4,0.4-0.4c1.2,0,2.1-1,2.1-2.2c0-0.4-0.1-0.7-0.3-1.1c-0.1-0.2,0-0.4,0.1-0.5l8.5-4.9c0.1-0.1,0.2-0.1,0.3,0
					c0.1,0,0.2,0.1,0.2,0.2c0.3,0.8,1.1,1.4,2,1.4c1.2,0,2.2-1,2.2-2.2c0-0.5-0.2-1-0.5-1.3c-0.1-0.1-0.1-0.2-0.1-0.3
					s0.1-0.2,0.2-0.3l8.6-5c0.2-0.1,0.4,0,0.5,0.1c0.4,0.7,1.1,1.1,1.9,1.1l0.3,0c0.1,0,0.2,0,0.3,0.1s0.1,0.2,0.1,0.3l0,8.8
					c0,0.1,0,0.2-0.1,0.3s-0.2,0.1-0.3,0.1c-0.1,0-0.1,0-0.2,0c-1.2,0-2.2,1-2.2,2.2c0,0.4,0.1,0.8,0.4,1.2c0.4,0.6,1.1,1,1.9,1
					c0.1,0,0.1,0,0.2,0c0.1,0,0.2,0,0.3,0.1c0.1,0.1,0.1,0.2,0.1,0.3l0,8.8c0,0.1,0,0.2-0.1,0.3c-0.1,0.1-0.2,0.1-0.3,0.1
					c-0.1,0-0.1,0-0.2,0c-1.2,0-2.2,1-2.2,2.2c0,0.5,0.1,0.9,0.4,1.3c0.1,0.1,0.1,0.2,0.1,0.3s-0.1,0.2-0.2,0.3l-8.4,4.9
					c-0.1,0.1-0.2,0.1-0.3,0c-0.1,0-0.2-0.1-0.2-0.2c-0.3-0.8-1.1-1.4-2-1.4c-1.2,0-2.2,1-2.2,2.2c0,0.5,0.2,0.9,0.5,1.3
					c0.1,0.1,0.1,0.2,0.1,0.3c0,0.1-0.1,0.2-0.2,0.3l-8.9,5.2C36.5,62.5,36.4,62.5,36.3,62.5z M34.5,60.5c0.8,0.1,1.5,0.5,1.9,1.1
					l8.2-4.8c-0.2-0.4-0.4-0.9-0.4-1.4c0-1.6,1.3-3,2.9-3c1.1,0,2,0.6,2.6,1.4l7.6-4.4c-0.2-0.4-0.3-0.9-0.3-1.4
					c0-1.6,1.3-2.9,2.8-3l0-8c-1,0-1.8-0.5-2.4-1.3c-0.3-0.5-0.5-1.1-0.5-1.6c0-1.6,1.3-2.9,2.9-3l0-8c-0.9,0-1.7-0.5-2.2-1.1
					l-7.9,4.6c0.3,0.4,0.4,0.9,0.4,1.5c0,1.6-1.3,3-3,3c-1.1,0-2-0.6-2.6-1.4l-7.8,4.5c0.1,0.3,0.2,0.7,0.2,1.1
					c0,1.5-1.1,2.7-2.5,2.9l0,7.7c1.1,0.2,2,0.9,2.3,1.9c0.1,0.3,0.2,0.6,0.2,1c0,1.5-1.1,2.7-2.5,2.9L34.5,60.5z"/>
			</g>
		</g>
		<g>
			<path d="M60.1,37.1c-1,0-1.9-0.5-2.5-1.3c-0.3-0.5-0.5-1.1-0.5-1.6c0-1.7,1.6-3.2,3.3-3c1.5,0.2,2.7,1.4,2.7,3
				c0,1.5-1.1,2.8-2.7,3C60.3,37,60.2,37.1,60.1,37.1z M60.1,31.9c-1.2,0-2.2,1-2.2,2.2c0,0.4,0.1,0.8,0.4,1.2c0.4,0.6,1.1,1,1.9,1
				c0.1,0,0.1,0,0.2,0c1.1-0.1,2-1,2-2.2c0-1.1-0.8-2.1-1.9-2.2C60.2,31.9,60.2,31.9,60.1,31.9z"/>
		</g>
		<g>
			<g>
				<path d="M31.9,62.5c-0.1,0-0.1,0-0.2-0.1l-8.6-5c-0.2-0.1-0.3-0.4-0.1-0.5c0.2-0.3,0.3-0.7,0.3-1c0-1.2-1-2.2-2.2-2.2
					c-0.8,0-1.5,0.4-1.9,1c-0.1,0.2-0.4,0.2-0.5,0.1L10,50c-0.2-0.1-0.3-0.4-0.1-0.5c0.2-0.3,0.3-0.7,0.3-1.1c0-1.2-1-2.2-2.2-2.2
					c-0.1,0-0.3,0-0.4-0.1s-0.2-0.2-0.2-0.3l0-9.1c0-0.1,0.1-0.2,0.2-0.3c0.1-0.1,0.2-0.1,0.3-0.1c0.8,0,1.5-0.4,1.9-1.1
					c0.2-0.3,0.3-0.7,0.3-1.1c0-1.2-1-2.2-2.2-2.2H7.8c-0.1,0-0.2,0-0.3-0.1s-0.1-0.2-0.1-0.3l0-9c0-0.2,0.2-0.4,0.4-0.4H8
					c0.8,0,1.5-0.4,1.9-1.1c0.1-0.2,0.4-0.3,0.5-0.1l8.6,5c0.1,0.1,0.2,0.1,0.2,0.2c0,0.1,0,0.2,0,0.3c-0.2,0.3-0.3,0.7-0.3,1.1
					c0,1.2,1,2.2,2.2,2.2c0.8,0,1.5-0.4,1.9-1.1c0.1-0.2,0.4-0.3,0.6-0.1l8.6,5c0.1,0.1,0.2,0.1,0.2,0.3c0,0.1,0,0.2-0.1,0.3
					c-0.2,0.3-0.3,0.7-0.3,1.1c0,1.2,1,2.2,2.2,2.2c0.1,0,0.2,0,0.3,0.1c0.1,0.1,0.2,0.2,0.2,0.3l0,8.5c0,0.2-0.2,0.4-0.4,0.4
					c-1,0-1.8,0.6-2.1,1.4l0,0c-0.1,0.2-0.1,0.5-0.1,0.8c0,1.2,1,2.2,2.2,2.2c0.1,0,0.2,0,0.3,0.1s0.1,0.2,0.1,0.3l0,9.5
					c0,0.2-0.2,0.4-0.4,0.4c-0.8,0-1.5,0.4-1.9,1.1c-0.1,0.1-0.1,0.2-0.2,0.2C32,62.5,31.9,62.5,31.9,62.5z M23.8,57l8,4.6
					c0.5-0.6,1.2-1,2-1.1l0-8.7c-1.5-0.2-2.6-1.4-2.6-2.9c0-0.4,0.1-0.7,0.2-1.1l0,0c0.4-1.1,1.3-1.8,2.4-1.9l0-7.7
					c-1.5-0.2-2.6-1.4-2.6-3c0-0.4,0.1-0.8,0.2-1.2l-8-4.6c-0.6,0.7-1.4,1.2-2.3,1.2c-1.7,0-3-1.3-3-3c0-0.4,0.1-0.8,0.2-1.1l-8-4.6
					c-0.5,0.6-1.2,1-2,1.1l0,8.3c1.5,0.1,2.7,1.4,2.7,3c0,0.5-0.1,1-0.4,1.5C10,36.5,9.2,37,8.2,37.1l0,8.3c1.5,0.1,2.7,1.4,2.7,3
					c0,0.4-0.1,0.7-0.2,1.1l8,4.6c0.5-0.7,1.3-1.1,2.2-1.1c1.7,0,3.1,1.3,3.1,3C24,56.3,23.9,56.7,23.8,57z"/>
			</g>
		</g>
		<g>
			<g>
				<path d="M36.4,34.3c0,0-0.1,0-0.1,0c-0.1,0-0.2-0.1-0.2-0.2c-0.4-0.7-1.1-1.1-1.9-1.1c-0.8,0-1.5,0.4-1.9,1.1
					c-0.1,0.2-0.4,0.3-0.5,0.1l-8.6-5c-0.2-0.1-0.3-0.3-0.1-0.5c0.2-0.3,0.3-0.7,0.3-1.1c0-0.4-0.1-0.8-0.3-1.1
					c-0.4-0.7-1.1-1.1-1.9-1.1c-0.8,0-1.5,0.4-1.9,1.1c-0.1,0.1-0.1,0.2-0.2,0.2c-0.1,0-0.2,0-0.3,0l-8.6-5
					c-0.1-0.1-0.2-0.1-0.2-0.3c0-0.1,0-0.2,0-0.3c0.2-0.3,0.3-0.7,0.3-1.1c0-0.4-0.1-0.8-0.3-1.1c-0.1-0.1-0.1-0.2,0-0.3
					c0-0.1,0.1-0.2,0.2-0.2l8.8-5.1c0.1-0.1,0.2-0.1,0.3,0c0.1,0,0.2,0.1,0.2,0.2c0.4,0.8,1.1,1.2,2,1.2c0.7,0,1.4-0.4,1.8-1
					c0.2-0.4,0.4-0.8,0.4-1.2c0-0.4-0.1-0.8-0.4-1.2C23,11,23,10.9,23,10.8c0-0.1,0.1-0.2,0.2-0.3l8.1-4.7c0.2-0.1,0.4-0.1,0.5,0.1
					c0.4,0.5,1,0.8,1.7,0.8c0.8,0,1.5-0.4,1.9-1.2c0.1-0.1,0.1-0.2,0.2-0.2c0.1,0,0.2,0,0.3,0l8.8,5.1c0.1,0.1,0.2,0.1,0.2,0.3
					c0,0.1,0,0.2-0.1,0.3c-0.3,0.4-0.4,0.8-0.4,1.2c0,0.4,0.1,0.9,0.4,1.2c0.4,0.6,1.1,0.9,1.8,0.9c0.8,0,1.6-0.5,2-1.2
					c0-0.1,0.1-0.2,0.2-0.2c0.1,0,0.2,0,0.3,0l8.9,5.1c0.1,0.1,0.2,0.2,0.2,0.3c0,0.1,0,0.2-0.1,0.3c-0.3,0.4-0.4,0.8-0.4,1.3
					c0,0.4,0.1,0.8,0.3,1.1c0.1,0.2,0,0.4-0.1,0.5l-8.6,5c-0.2,0.1-0.4,0.1-0.5-0.1c-0.8-1.1-2.6-1.1-3.4,0
					c-0.3,0.4-0.5,0.9-0.5,1.4c0,0.3,0.1,0.6,0.2,0.8c0.1,0.2,0,0.4-0.2,0.5l-8.5,4.9C36.5,34.3,36.4,34.3,36.4,34.3z M34.1,32.2
					c0.9,0,1.8,0.4,2.4,1.2l7.9-4.6c-0.1-0.3-0.1-0.5-0.1-0.8c0-0.7,0.2-1.3,0.6-1.9c0.6-0.7,1.4-1.1,2.3-1.1c0.8,0,1.5,0.3,2.1,0.9
					l8-4.6c-0.1-0.4-0.2-0.7-0.2-1.1c0-0.5,0.1-1,0.4-1.4L49.3,14c-0.6,0.8-1.5,1.3-2.5,1.3c-1,0-1.9-0.5-2.5-1.3
					c-0.3-0.5-0.5-1.1-0.5-1.7c0-0.5,0.1-0.9,0.3-1.3L36,6.3c-0.6,0.8-1.5,1.2-2.4,1.2c-0.8,0-1.5-0.3-2.1-0.9L24,11
					c0.2,0.4,0.3,0.9,0.3,1.3c0,0.6-0.2,1.2-0.5,1.7c-0.5,0.8-1.5,1.3-2.5,1.3c-1,0-1.9-0.5-2.5-1.3l-8.2,4.7
					c0.2,0.4,0.2,0.8,0.2,1.2c0,0.4-0.1,0.8-0.2,1.2l8,4.6c0.6-0.7,1.4-1.2,2.4-1.2c1.1,0,2,0.6,2.6,1.5c0.3,0.5,0.4,1,0.4,1.5
					c0,0.4-0.1,0.8-0.2,1.1l8,4.6C32.3,32.6,33.2,32.2,34.1,32.2z"/>
			</g>
		</g>
		<g>
			<path d="M45.2,26.8c-0.1,0-0.1,0-0.2-0.1l-8.9-5.1c-0.2-0.1-0.3-0.4-0.1-0.5c0.1-0.2,0.4-0.3,0.5-0.1l8.9,5.1
				c0.2,0.1,0.3,0.4,0.1,0.5C45.5,26.7,45.4,26.8,45.2,26.8z"/>
		</g>
		<g>
			<path d="M31.9,19.1c-0.1,0-0.1,0-0.2-0.1l-8.5-4.9C23,14,23,13.8,23.1,13.6c0.1-0.2,0.4-0.3,0.5-0.1l8.5,4.9
				c0.2,0.1,0.3,0.4,0.1,0.5C32.2,19,32,19.1,31.9,19.1z"/>
		</g>
		<g>
			<path d="M23.3,26.7c-0.1,0-0.3-0.1-0.3-0.2c-0.1-0.2,0-0.4,0.1-0.5l8.6-5c0.2-0.1,0.4,0,0.5,0.1c0.1,0.2,0,0.4-0.1,0.5l-8.6,5
				C23.4,26.6,23.3,26.7,23.3,26.7z"/>
		</g>
		<g>
			<path d="M36.3,19.1c-0.1,0-0.3-0.1-0.3-0.2c-0.1-0.2,0-0.4,0.1-0.5l8.4-4.9c0.2-0.1,0.4,0,0.5,0.1c0.1,0.2,0,0.4-0.1,0.5L36.5,19
				C36.5,19,36.4,19.1,36.3,19.1z"/>
		</g>
		<g>
			<path d="M47.2,39.5C47.2,39.5,47.2,39.5,47.2,39.5c-0.2,0-0.4-0.2-0.4-0.4l0-8.5c0-0.2,0.2-0.4,0.4-0.4c0,0,0,0,0,0
				c0.2,0,0.4,0.2,0.4,0.4l0,8.5C47.6,39.3,47.5,39.5,47.2,39.5z"/>
		</g>
		<g>
			<path d="M47.2,53.2C47.2,53.2,47.2,53.2,47.2,53.2c-0.2,0-0.4-0.2-0.4-0.4l0-8.5c0-0.2,0.2-0.4,0.4-0.4c0,0,0,0,0,0
				c0.2,0,0.4,0.2,0.4,0.4l0,8.5C47.6,53,47.4,53.2,47.2,53.2z"/>
		</g>
		<g>
			<path d="M49.5,40.8c-0.1,0-0.3-0.1-0.3-0.2c-0.1-0.2,0-0.4,0.1-0.5l8.4-4.9c0.2-0.1,0.4,0,0.5,0.1c0.1,0.2,0,0.4-0.1,0.5
				l-8.4,4.9C49.6,40.8,49.5,40.8,49.5,40.8z"/>
		</g>
		<g>
			<path d="M36.5,48.3c-0.1,0-0.3-0.1-0.3-0.2c-0.1-0.2,0-0.4,0.1-0.5l8.5-4.9c0.2-0.1,0.4,0,0.5,0.1c0.1,0.2,0,0.4-0.1,0.5
				l-8.5,4.9C36.7,48.3,36.6,48.3,36.5,48.3z"/>
		</g>
		<g>
			<path d="M49.5,40.8c-0.1,0-0.3-0.1-0.3-0.2c-0.1-0.2,0-0.4,0.1-0.5l8.4-4.9c0.2-0.1,0.4,0,0.5,0.1c0.1,0.2,0,0.4-0.1,0.5
				l-8.4,4.9C49.6,40.8,49.5,40.8,49.5,40.8z"/>
		</g>
		<g>
			<path d="M36.5,48.3c-0.1,0-0.3-0.1-0.3-0.2c-0.1-0.2,0-0.4,0.1-0.5l8.5-4.9c0.2-0.1,0.4,0,0.5,0.1c0.1,0.2,0,0.4-0.1,0.5
				l-8.5,4.9C36.7,48.3,36.6,48.3,36.5,48.3z"/>
		</g>
		<g>
			<path d="M31.7,48.3c-0.1,0-0.1,0-0.2-0.1l-8.4-4.9c-0.2-0.1-0.3-0.4-0.1-0.5c0.1-0.2,0.4-0.3,0.5-0.1l8.4,4.9
				c0.2,0.1,0.3,0.4,0.1,0.5C32,48.2,31.8,48.3,31.7,48.3z"/>
		</g>
		<g>
			<path d="M18.8,40.8c-0.1,0-0.1,0-0.2-0.1l-8.6-5c-0.2-0.1-0.3-0.4-0.1-0.5c0.1-0.2,0.4-0.3,0.5-0.1l8.6,5
				c0.2,0.1,0.3,0.4,0.1,0.5C19.1,40.8,19,40.8,18.8,40.8z"/>
		</g>
		<g>
			<path d="M21,39.6C21,39.6,21,39.6,21,39.6c-0.2,0-0.4-0.2-0.4-0.4l0-9c0-0.2,0.2-0.4,0.4-0.4c0.2,0,0.4,0.2,0.4,0.4l0,9
				C21.4,39.4,21.2,39.6,21,39.6z"/>
		</g>
		<g>
			<path d="M21,53.8C21,53.8,21,53.8,21,53.8c-0.2,0-0.4-0.2-0.4-0.4l0-9.1c0-0.2,0.2-0.4,0.4-0.4c0,0,0,0,0,0
				c0.2,0,0.4,0.2,0.4,0.4l0,9.1C21.4,53.6,21.2,53.8,21,53.8z"/>
		</g>
		<g>
			<g>
				<path d="M60.1,23.1c-1.1,0-2-0.6-2.6-1.5c-0.3-0.5-0.4-1-0.4-1.5c0-0.6,0.2-1.3,0.6-1.8c0.6-0.8,1.4-1.2,2.4-1.2
					c1.6,0,3,1.3,3,3c0,1.5-1.1,2.7-2.5,2.9c0,0-0.1,0-0.1,0L60.1,23.1z M60.4,22.7L60.4,22.7L60.4,22.7z M60.1,17.9
					c-0.7,0-1.3,0.3-1.7,0.9c-0.3,0.4-0.4,0.8-0.4,1.3c0,0.4,0.1,0.8,0.3,1.1c0.4,0.7,1.1,1.1,1.9,1.1l0.2,0c0,0,0,0,0.1,0
					c1.1-0.1,1.9-1,1.9-2.2C62.2,18.9,61.3,17.9,60.1,17.9z"/>
			</g>
			<g>
				<path d="M46.8,15.3c-1,0-1.9-0.5-2.5-1.3c-0.3-0.5-0.5-1.1-0.5-1.7c0-0.6,0.2-1.2,0.5-1.7c0.6-0.8,1.5-1.3,2.5-1.3
					c1.6,0,3,1.3,3,3c0,0.4-0.1,0.9-0.3,1.3C49,14.7,48,15.3,46.8,15.3z M46.8,10.2c-0.7,0-1.4,0.4-1.8,0.9
					c-0.2,0.4-0.4,0.8-0.4,1.2c0,0.4,0.1,0.9,0.4,1.2c0.4,0.6,1.1,0.9,1.8,0.9c0.8,0,1.6-0.5,2-1.2c0.1-0.3,0.2-0.6,0.2-0.9
					C49,11.1,48,10.2,46.8,10.2z"/>
			</g>
			<g>
				<path d="M33.5,7.6c-0.9,0-1.8-0.4-2.3-1.1c-0.4-0.5-0.7-1.2-0.7-1.9c0-1.6,1.3-3,3-3c1.6,0,3,1.3,3,3c0,0.5-0.1,0.9-0.3,1.4
					C35.7,7,34.6,7.6,33.5,7.6z M33.5,2.4c-1.2,0-2.2,1-2.2,2.2c0,0.5,0.2,1,0.5,1.4c0.4,0.5,1,0.8,1.7,0.8c0.8,0,1.5-0.4,1.9-1.2
					c0.2-0.3,0.2-0.7,0.2-1C35.7,3.4,34.7,2.4,33.5,2.4z"/>
			</g>
			<g>
				<path d="M21.3,15.3c-1.1,0-2.2-0.6-2.7-1.7c-0.2-0.4-0.3-0.9-0.3-1.3c0-1.6,1.3-3,3-3c1,0,1.9,0.5,2.5,1.3
					c0.3,0.5,0.5,1.1,0.5,1.7c0,0.6-0.2,1.2-0.5,1.7C23.2,14.8,22.3,15.3,21.3,15.3z M21.3,10.2c-1.2,0-2.2,1-2.2,2.2
					c0,0.3,0.1,0.6,0.2,1c0.4,0.8,1.1,1.2,2,1.2c0.7,0,1.4-0.4,1.8-1c0.2-0.4,0.4-0.8,0.4-1.2c0-0.4-0.1-0.8-0.4-1.2
					C22.7,10.5,22,10.2,21.3,10.2z"/>
			</g>
			<g>
				<path d="M60.1,51c-0.9,0-1.8-0.4-2.4-1.2c0,0,0,0-0.1-0.1c-0.4-0.5-0.6-1.1-0.6-1.7c0-1.7,1.5-3.2,3.3-3c1.5,0.2,2.7,1.4,2.7,3
					C63,49.7,61.7,51,60.1,51z M58.3,49.3C58.3,49.3,58.3,49.3,58.3,49.3c0.4,0.6,1.1,0.9,1.8,0.9c1.2,0,2.2-1,2.2-2.2
					c0-1.1-0.8-2.1-2-2.2c-0.1,0-0.1,0-0.2,0c-1.2,0-2.2,1-2.2,2.2C57.9,48.5,58,48.9,58.3,49.3z"/>
			</g>
			<g>
				<path d="M47.3,58.4c-0.9,0-1.8-0.4-2.4-1.2c-0.4-0.5-0.6-1.2-0.6-1.8c0-1.6,1.3-3,2.9-3c1.2,0,2.3,0.7,2.8,1.8
					c0.1,0.3,0.2,0.7,0.2,1.1C50.2,57,48.9,58.4,47.3,58.4z M47.3,53.2c-1.2,0-2.2,1-2.2,2.2c0,0.5,0.2,0.9,0.5,1.3
					c0.4,0.5,1,0.8,1.7,0.8c1.2,0,2.2-1,2.2-2.2c0-0.3-0.1-0.6-0.2-0.8C48.9,53.7,48.1,53.2,47.3,53.2z"/>
			</g>
			<g>
				<path d="M47.3,31c-1.2,0-2.3-0.7-2.8-1.9c-0.1-0.4-0.2-0.7-0.2-1.1c0-0.7,0.2-1.3,0.6-1.9c0.6-0.7,1.4-1.1,2.3-1.1
					c0.9,0,1.8,0.4,2.3,1.1c0.4,0.5,0.6,1.2,0.6,1.8C50.2,29.6,48.9,31,47.3,31z M47.3,25.8c-0.7,0-1.3,0.3-1.7,0.8
					c-0.3,0.4-0.5,0.9-0.5,1.4c0,0.3,0.1,0.6,0.2,0.8c0.3,0.8,1.1,1.4,2,1.4c1.2,0,2.2-1,2.2-2.2c0-0.5-0.2-1-0.5-1.3
					C48.5,26.1,47.9,25.8,47.3,25.8z"/>
			</g>
			<g>
				<path d="M34.2,38.1c-1.7,0-3.1-1.3-3.1-3c0-0.6,0.1-1.1,0.4-1.5c0.5-0.9,1.5-1.4,2.5-1.4c1.1,0,2.1,0.6,2.6,1.5
					c0.2,0.4,0.4,0.9,0.4,1.5C37.1,36.8,35.8,38.1,34.2,38.1z M34.1,33c-0.8,0-1.5,0.4-1.9,1.1c-0.2,0.3-0.3,0.7-0.3,1.1
					c0,1.2,1,2.2,2.2,2.2c1.2,0,2.2-1,2.2-2.2c0-0.4-0.1-0.7-0.3-1.1C35.6,33.4,34.9,33,34.1,33z"/>
			</g>
			<g>
				<path d="M21,30.5c-1.7,0-3-1.3-3-3c0-0.5,0.1-1,0.4-1.5c0.5-0.9,1.5-1.5,2.6-1.5c1.1,0,2,0.6,2.6,1.5c0.3,0.5,0.4,1,0.4,1.5
					c0,0.5-0.1,1-0.4,1.5c0,0,0,0.1-0.1,0.1C23,30,22.1,30.5,21,30.5z M21,25.4c-0.8,0-1.5,0.4-1.9,1.1c-0.2,0.3-0.3,0.7-0.3,1.1
					c0,1.2,1,2.2,2.2,2.2c0.8,0,1.5-0.4,1.9-1.1c0,0,0,0,0-0.1c0.2-0.3,0.3-0.7,0.3-1c0-0.4-0.1-0.8-0.3-1.1
					C22.5,25.8,21.8,25.4,21,25.4z M23.3,28.9L23.3,28.9L23.3,28.9z"/>
			</g>
			<g>
				<path d="M8,22.9H7.8C6.2,22.9,5,21.6,5,20c0-1.6,1.3-3,3-3c1,0,2,0.5,2.5,1.4c0.3,0.5,0.4,1,0.4,1.5c0,0.6-0.1,1.1-0.4,1.5
					C10,22.4,9,22.9,8,22.9z M8,17.8c-1.2,0-2.2,1-2.2,2.2c0,1.2,0.9,2.1,2.1,2.2l0.1,0c0.8,0,1.5-0.4,1.9-1.1
					c0.2-0.3,0.3-0.7,0.3-1.1c0-0.4-0.1-0.8-0.3-1.1C9.4,18.2,8.7,17.8,8,17.8z"/>
			</g>
			<g>
				<path d="M8,37.1c-0.1,0-0.1,0-0.2,0C6.2,37,5,35.7,5,34.2c0-1.6,1.2-2.8,2.8-3c0,0,0.1,0,0.1,0H8c1.6,0,3,1.3,3,3
					c0,0.5-0.1,1-0.4,1.5C10,36.6,9,37.1,8,37.1z M7.9,32C7.9,32,7.9,32,7.9,32c-1.2,0.1-2.1,1-2.1,2.2c0,1.2,0.9,2.1,2.1,2.2
					L8,36.7v-0.4c0.8,0,1.5-0.4,1.9-1.1c0.2-0.3,0.3-0.7,0.3-1.1C10.1,33,9.2,32,7.9,32L7.9,32z"/>
			</g>
			<g>
				<path d="M21,58.9c-1.6,0-3-1.3-3-3c0-0.6,0.2-1.1,0.5-1.6C19,53.5,19.9,53,21,53c1.7,0,3.1,1.3,3.1,3c0,0.5-0.1,1-0.4,1.4
					C23.1,58.3,22.1,58.9,21,58.9z M21,53.8c-0.8,0-1.5,0.4-1.9,1c-0.2,0.3-0.3,0.7-0.3,1.1c0,1.2,1,2.2,2.2,2.2
					c0.8,0,1.5-0.4,1.9-1.1c0.2-0.3,0.3-0.7,0.3-1C23.2,54.8,22.2,53.8,21,53.8z"/>
			</g>
			<g>
				<path d="M8,51.3c-1.6,0-3-1.3-3-3c0-1.6,1.2-2.9,2.8-3c0,0,0.1,0,0.2,0c1.6,0,3,1.3,3,3c0,0.5-0.1,1-0.4,1.4
					C10,50.7,9,51.3,8,51.3z M8,46.2c0,0-0.1,0-0.1,0c-1.2,0.1-2.1,1-2.1,2.2c0,1.2,1,2.2,2.2,2.2c0.8,0,1.5-0.4,1.9-1.1
					c0.2-0.3,0.3-0.7,0.3-1.1C10.1,47.2,9.2,46.2,8,46.2z"/>
			</g>
			<g>
				<path d="M34.1,66.4c-1.6,0-3-1.3-3-3c0-0.5,0.1-1,0.4-1.5c0.5-0.9,1.5-1.5,2.6-1.5c1.1,0,2,0.6,2.6,1.5c0.3,0.5,0.4,1,0.4,1.5
					C37.1,65.1,35.8,66.4,34.1,66.4z M34.1,61.2c-0.8,0-1.5,0.4-1.9,1.1c-0.2,0.3-0.3,0.7-0.3,1.1c0,1.2,1,2.2,2.2,2.2
					c1.2,0,2.2-1,2.2-2.2c0-0.4-0.1-0.8-0.3-1.1C35.6,61.7,34.9,61.3,34.1,61.2z"/>
			</g>
			<g>
				<path d="M34.2,51.8c-1.7,0-3-1.3-3-3c0-0.4,0.1-0.7,0.2-1.1c0.4-1.2,1.5-1.9,2.8-1.9c1.3,0,2.4,0.8,2.8,2c0.1,0.3,0.2,0.6,0.2,1
					C37.1,50.4,35.8,51.7,34.2,51.8z M34.2,46.6c-1,0-1.8,0.6-2.1,1.4c-0.1,0.3-0.1,0.5-0.1,0.8c0,1.2,1,2.2,2.2,2.2
					c1.2,0,2.2-1,2.2-2.2c0-0.3,0-0.5-0.1-0.7C35.9,47.2,35.1,46.6,34.2,46.6z"/>
			</g>
		</g>
	</g>
	<g>
		<path d="M34.1,22.9c-1.1,0-2-0.6-2.6-1.5c-0.3-0.4-0.4-1-0.4-1.5c0-0.5,0.1-1,0.4-1.5c0.5-0.9,1.5-1.5,2.6-1.5
			c1.1,0,2,0.6,2.6,1.5c0.3,0.5,0.4,1,0.4,1.5s-0.1,1-0.4,1.5C36.2,22.4,35.2,22.9,34.1,22.9z M34.1,17.8c-0.8,0-1.5,0.4-1.9,1.1
			c-0.2,0.3-0.3,0.7-0.3,1.1c0,0.4,0.1,0.8,0.3,1.1c0.4,0.7,1.1,1.1,1.9,1.1c0.8,0,1.5-0.4,1.9-1.1c0.2-0.3,0.3-0.7,0.3-1.1
			s-0.1-0.8-0.3-1.1C35.6,18.2,34.9,17.8,34.1,17.8z"/>
	</g>
	<g>
		<path d="M47.3,44.7c-1.1,0-2.1-0.6-2.6-1.5c-0.3-0.4-0.4-1-0.4-1.5c0-1.6,1.3-3,3-3c1.1,0,2,0.6,2.6,1.5c0.3,0.4,0.4,1,0.4,1.5
			C50.2,43.3,48.9,44.7,47.3,44.7z M47.3,39.5c-1.2,0-2.2,1-2.2,2.2c0,0.4,0.1,0.8,0.3,1.1c0.4,0.7,1.1,1.1,1.9,1.1
			c1.2,0,2.2-1,2.2-2.2c0-0.4-0.1-0.8-0.3-1.1C48.7,39.9,48,39.5,47.3,39.5z"/>
	</g>
	<g>
		<path d="M21,44.7c-1.7,0-3-1.3-3-3c0-0.6,0.1-1.1,0.4-1.5c0.5-0.9,1.5-1.4,2.5-1.4c1.7,0,3,1.3,3,3c0,0.5-0.1,1-0.4,1.4
			C23.1,44.1,22.1,44.7,21,44.7z M21,39.6c-0.8,0-1.5,0.4-1.9,1.1c-0.2,0.3-0.3,0.7-0.3,1.1c0,1.2,0.9,2.1,2.1,2.2
			c0.8,0,1.5-0.4,1.9-1.1c0.2-0.3,0.3-0.7,0.3-1.1C23.2,40.6,22.2,39.6,21,39.6z"/>
	</g>
</g>
</svg>
