<?xml version="1.0" encoding="utf-8"?>
<!-- Generator: Adobe Illustrator 27.9.1, SVG Export Plug-In . SVG Version: 6.00 Build 0)  -->
<svg version="1.1" id="Layer_1" xmlns="http://www.w3.org/2000/svg" xmlns:xlink="http://www.w3.org/1999/xlink" x="0px" y="0px"
	 viewBox="0 0 512 429.3" style="enable-background:new 0 0 512 429.3;" xml:space="preserve">
<g>
	<g>
		<path d="M435.2,146.8c-93.9-56.1-263.2-56.1-357.2,0C29.1,174.8,2.2,212.3,2.2,252.4c0,40.2,26.8,77.8,75.5,105.8
			c47.7,27.5,111.1,42.6,178.3,42.6c67.4,0,130.9-15.1,178.9-42.6c49-28.1,76-65.7,76-105.8S484,174.8,435.2,146.8z M283.3,141.6
			c3.2-0.7,6.4,1.3,7.2,4.5c1.9,8.6,2.9,17.3,3,26.1c0,3.3-2.6,6-5.9,6.1c-3.3,0-6-2.6-6.1-5.9l0,0c-0.1-7.9-0.9-15.8-2.7-23.5
			C278.1,145.5,280.1,142.3,283.3,141.6C283.3,141.6,283.3,141.6,283.3,141.6L283.3,141.6z M271.8,217.7c3.6-6.8,6.1-14.2,7.6-21.8
			c0.6-3.2,3.8-5.4,7.1-4.7c3.2,0.6,5.4,3.8,4.7,7.1c-1.6,8.8-4.6,17.3-8.8,25.3c-1.6,2.9-5.3,3.9-8.2,2.3
			C271.2,224.3,270.2,220.6,271.8,217.7L271.8,217.7z M256,388.9c-5,0-10-0.1-14.9-0.3c3-1.4,4.3-5,2.9-8c-0.1-0.3-0.3-0.5-0.4-0.8
			c-3.6-5.4-6.5-12.7-8.4-21.1c-0.7-3.2-3.9-5.3-7.1-4.6c-3.2,0.7-5.3,3.9-4.6,7.1c0,0.1,0,0.2,0.1,0.2c2.9,10.7,5.6,20.5,12.2,27
			c-57.5-2.7-110.9-16.9-152-40.5c-44.8-25.8-69.5-59.7-69.5-95.4c0-35.7,24.8-69.5,69.7-95.2c40.7-23.3,93.5-37.3,150.3-40.2
			c-9.5,12.4-15.6,32.9-15.6,56.6c0,24.3,6.5,45.3,16.4,57.6c-19.9,0.9-38.4,2.9-53.4,5.9c-20.7,4.2-29.9,9.1-34.1,13.6
			c-25.4-10.9-38.3-27.5-38.3-49.7c0-3.3-2.7-6-6-6s-6,2.7-6,6c0,23,10.9,41.2,32.3,54c22.8,13.7,58.5,21.5,106.1,23.1
			c-1.4,1.8-2.7,3.7-3.8,5.7c-1.6,2.9-0.7,6.5,2.2,8.2s6.5,0.7,8.2-2.2c2.4-4.2,7.5-11.4,13.8-11.4c11.1,0,23.6,22.6,23.6,55.1
			S267.2,388.9,256,388.9z M342,258c-27.8,6.6-51.8,8.4-86,8.6c-39.5,0-71.1-3.6-94.8-10.9c4.2-2.1,11.5-4.7,24.1-7.1
			c19.4-3.8,44.6-5.9,71.1-5.9c25.8,0,50,1.9,69.4,5.5c1.5,0.3,3.1,0.3,4.6,0c29.5-6.1,61.8-19.1,62.1-46.9
			c-0.1-3.3,2.5-6.1,5.7-6.3c3.3-0.1,6.1,2.4,6.2,5.7c0,0.1,0,0.2,0,0.3C404.7,220.4,393.4,245.1,342,258z"/>
		<path d="M229.9,304.6c-3.2-0.6-6.4,1.5-7.1,4.7c-1.7,8.6-2.5,17.3-2.3,26.1c0,3.3,2.7,5.9,6,5.9h0.1c3.3,0,6-2.8,5.9-6.1
			c-0.1-7.9,0.6-15.8,2.1-23.6C235.2,308.4,233.1,305.2,229.9,304.6C229.9,304.6,229.9,304.6,229.9,304.6z"/>
	</g>
</g>
</svg>
